<?xml version="1.0" encoding="UTF-8" standalone="no"?>
<!DOCTYPE svg PUBLIC "-//W3C//DTD SVG 1.1//EN"
 "http://www.w3.org/Graphics/SVG/1.1/DTD/svg11.dtd">
<!-- Generated by graphviz version 2.40.1 (20161225.0304)
 -->
<!-- Title: ownership Pages: 1 -->
<svg width="678pt" height="502pt"
 viewBox="0.00 0.00 678.00 502.00" xmlns="http://www.w3.org/2000/svg" xmlns:xlink="http://www.w3.org/1999/xlink">
<g id="graph0" class="graph" transform="scale(1 1) rotate(0) translate(4 498)">
<title>ownership</title>
<polygon fill="#ffffff" stroke="transparent" points="-4,4 -4,-498 674,-498 674,4 -4,4"/>
<!-- ownership -->
<g id="node1" class="node">
<title>ownership</title>
<polygon fill="#efefef" stroke="transparent" points="240,-412.5 240,-447.5 433,-447.5 433,-412.5 240,-412.5"/>
<polygon fill="none" stroke="#000000" points="240,-412.5 240,-447.5 433,-447.5 433,-412.5 240,-412.5"/>
<text text-anchor="start" x="246.8673" y="-425.3" font-family="Arial Bold" font-size="18.00" fill="#000000">ownership</text>
<text text-anchor="start" x="328.8789" y="-425.3" font-family="Arial" font-size="14.00" fill="#000000"> </text>
<text text-anchor="start" x="332.7695" y="-425.3" font-family="Arial" font-size="14.00" fill="#666666">[BASE TABLE]</text>
<polygon fill="none" stroke="#000000" points="240,-382.5 240,-412.5 433,-412.5 433,-382.5 240,-382.5"/>
<text text-anchor="start" x="247" y="-393.9" font-family="Arial" font-size="14.00" fill="#000000">user_id </text>
<text text-anchor="start" x="296.7882" y="-393.9" font-family="Arial" font-size="14.00" fill="#666666">[bigint(20)]</text>
<polygon fill="none" stroke="#000000" points="240,-352.5 240,-382.5 433,-382.5 433,-352.5 240,-352.5"/>
<text text-anchor="start" x="247" y="-363.9" font-family="Arial" font-size="14.00" fill="#000000">task_id </text>
<text text-anchor="start" x="295.2356" y="-363.9" font-family="Arial" font-size="14.00" fill="#666666">[bigint(20)]</text>
<polygon fill="none" stroke="#000000" stroke-width="3" points="238,-351.5 238,-449.5 434,-449.5 434,-351.5 238,-351.5"/>
</g>
<!-- users -->
<g id="node2" class="node">
<title>users</title>
<polygon fill="#efefef" stroke="transparent" points="126,-192.5 126,-227.5 281,-227.5 281,-192.5 126,-192.5"/>
<polygon fill="none" stroke="#000000" points="126,-192.5 126,-227.5 281,-227.5 281,-192.5 126,-192.5"/>
<text text-anchor="start" x="132.8708" y="-205.3" font-family="Arial Bold" font-size="18.00" fill="#000000">users</text>
<text text-anchor="start" x="176.8754" y="-205.3" font-family="Arial" font-size="14.00" fill="#000000"> </text>
<text text-anchor="start" x="180.766" y="-205.3" font-family="Arial" font-size="14.00" fill="#666666">[BASE TABLE]</text>
<polygon fill="none" stroke="#000000" points="126,-162.5 126,-192.5 281,-192.5 281,-162.5 126,-162.5"/>
<text text-anchor="start" x="133" y="-173.9" font-family="Arial" font-size="14.00" fill="#000000">id </text>
<text text-anchor="start" x="147.7798" y="-173.9" font-family="Arial" font-size="14.00" fill="#666666">[bigint(20)]</text>
<polygon fill="none" stroke="#000000" points="126,-132.5 126,-162.5 281,-162.5 281,-132.5 126,-132.5"/>
<text text-anchor="start" x="133" y="-143.9" font-family="Arial" font-size="14.00" fill="#000000">name </text>
<text text-anchor="start" x="171.899" y="-143.9" font-family="Arial" font-size="14.00" fill="#666666">[varchar(50)]</text>
<polygon fill="none" stroke="#000000" points="126,-102.5 126,-132.5 281,-132.5 281,-102.5 126,-102.5"/>
<text text-anchor="start" x="133" y="-113.9" font-family="Arial" font-size="14.00" fill="#000000">password </text>
<text text-anchor="start" x="196.7882" y="-113.9" font-family="Arial" font-size="14.00" fill="#666666">[binary(32)]</text>
<polygon fill="none" stroke="#000000" points="126,-72.5 126,-102.5 281,-102.5 281,-72.5 126,-72.5"/>
<text text-anchor="start" x="133" y="-83.9" font-family="Arial" font-size="14.00" fill="#000000">updated_at </text>
<text text-anchor="start" x="206.9326" y="-83.9" font-family="Arial" font-size="14.00" fill="#666666">[datetime]</text>
<polygon fill="none" stroke="#000000" points="126,-42.5 126,-72.5 281,-72.5 281,-42.5 126,-42.5"/>
<text text-anchor="start" x="133" y="-53.9" font-family="Arial" font-size="14.00" fill="#000000">created_at </text>
<text text-anchor="start" x="203.028" y="-53.9" font-family="Arial" font-size="14.00" fill="#666666">[datetime]</text>
</g>
<!-- ownership&#45;&gt;users -->
<g id="edge1" class="edge">
<title>ownership:user_id&#45;&gt;users:id</title>
<path fill="none" stroke="#000000" d="M229.977,-396.0253C204.3265,-387.145 225.0311,-340.0637 240,-307 250.0013,-284.9088 270.9987,-293.0912 281,-271 298.1388,-233.1434 322.5556,-177.5 281,-177.5"/>
<polygon fill="#000000" stroke="#000000" points="230.1065,-396.0443 239.3449,-401.9521 235.0533,-396.7721 240,-397.5 240,-397.5 240,-397.5 235.0533,-396.7721 240.6551,-393.0479 230.1065,-396.0443 230.1065,-396.0443"/>
<text text-anchor="start" x="6.945" y="-407.5" font-family="Arial" font-size="10.00" fill="#000000">FOREIGN KEY (user_id) REFERENCES users (id)</text>
</g>
<!-- tasks -->
<g id="node3" class="node">
<title>tasks</title>
<polygon fill="#efefef" stroke="transparent" points="385,-192.5 385,-227.5 557,-227.5 557,-192.5 385,-192.5"/>
<polygon fill="none" stroke="#000000" points="385,-192.5 385,-227.5 557,-227.5 557,-192.5 385,-192.5"/>
<text text-anchor="start" x="401.3689" y="-205.3" font-family="Arial Bold" font-size="18.00" fill="#000000">tasks</text>
<text text-anchor="start" x="443.3773" y="-205.3" font-family="Arial" font-size="14.00" fill="#000000"> </text>
<text text-anchor="start" x="447.2679" y="-205.3" font-family="Arial" font-size="14.00" fill="#666666">[BASE TABLE]</text>
<polygon fill="none" stroke="#000000" points="385,-162.5 385,-192.5 557,-192.5 557,-162.5 385,-162.5"/>
<text text-anchor="start" x="392" y="-173.9" font-family="Arial" font-size="14.00" fill="#000000">id </text>
<text text-anchor="start" x="406.7798" y="-173.9" font-family="Arial" font-size="14.00" fill="#666666">[bigint(20)]</text>
<polygon fill="none" stroke="#000000" points="385,-132.5 385,-162.5 557,-162.5 557,-132.5 385,-132.5"/>
<text text-anchor="start" x="392" y="-143.9" font-family="Arial" font-size="14.00" fill="#000000">title </text>
<text text-anchor="start" x="417.6676" y="-143.9" font-family="Arial" font-size="14.00" fill="#666666">[varchar(50)]</text>
<polygon fill="none" stroke="#000000" points="385,-102.5 385,-132.5 557,-132.5 557,-102.5 385,-102.5"/>
<text text-anchor="start" x="391.6564" y="-113.9" font-family="Arial" font-size="14.00" fill="#000000">description </text>
<text text-anchor="start" x="463.2244" y="-113.9" font-family="Arial" font-size="14.00" fill="#666666">[varchar(256)]</text>
<polygon fill="none" stroke="#000000" points="385,-72.5 385,-102.5 557,-102.5 557,-72.5 385,-72.5"/>
<text text-anchor="start" x="392" y="-83.9" font-family="Arial" font-size="14.00" fill="#000000">is_done </text>
<text text-anchor="start" x="444.9102" y="-83.9" font-family="Arial" font-size="14.00" fill="#666666">[tinyint(1)]</text>
<polygon fill="none" stroke="#000000" points="385,-42.5 385,-72.5 557,-72.5 557,-42.5 385,-42.5"/>
<text text-anchor="start" x="392" y="-53.9" font-family="Arial" font-size="14.00" fill="#000000">created_at </text>
<text text-anchor="start" x="462.028" y="-53.9" font-family="Arial" font-size="14.00" fill="#666666">[datetime]</text>
</g>
<!-- ownership&#45;&gt;tasks -->
<g id="edge2" class="edge">
<title>ownership:task_id&#45;&gt;tasks:id</title>
<path fill="none" stroke="#000000" d="M442.7162,-365.0167C455.3133,-356.4121 443.1462,-327.2923 433,-307 421.0743,-283.1486 396.9257,-294.8514 385,-271 366.4158,-233.8316 343.4444,-177.5 385,-177.5"/>
<polygon fill="#000000" stroke="#000000" points="442.6886,-365.0237 431.8857,-363.1401 437.8443,-366.2618 433,-367.5 433,-367.5 433,-367.5 437.8443,-366.2618 434.1143,-371.8599 442.6886,-365.0237 442.6886,-365.0237"/>
<text text-anchor="start" x="440.054" y="-377.5" font-family="Arial" font-size="10.00" fill="#000000">FOREIGN KEY (task_id) REFERENCES tasks (id)</text>
</g>
</g>
</svg>
