<?xml version="1.0" encoding="UTF-8" standalone="no"?>
<!DOCTYPE svg PUBLIC "-//W3C//DTD SVG 1.1//EN"
 "http://www.w3.org/Graphics/SVG/1.1/DTD/svg11.dtd">
<!-- Generated by graphviz version 2.40.1 (20161225.0304)
 -->
<!-- Title: todolist Pages: 1 -->
<svg width="678pt" height="496pt"
 viewBox="0.00 0.00 678.00 496.00" xmlns="http://www.w3.org/2000/svg" xmlns:xlink="http://www.w3.org/1999/xlink">
<g id="graph0" class="graph" transform="scale(1 1) rotate(0) translate(4 492)">
<title>todolist</title>
<polygon fill="#ffffff" stroke="transparent" points="-4,4 -4,-492 674,-492 674,4 -4,4"/>
<!-- ownership -->
<g id="node1" class="node">
<title>ownership</title>
<polygon fill="#efefef" stroke="transparent" points="237,-409.5 237,-444.5 430,-444.5 430,-409.5 237,-409.5"/>
<polygon fill="none" stroke="#000000" points="237,-409.5 237,-444.5 430,-444.5 430,-409.5 237,-409.5"/>
<text text-anchor="start" x="243.8673" y="-422.3" font-family="Arial Bold" font-size="18.00" fill="#000000">ownership</text>
<text text-anchor="start" x="325.8789" y="-422.3" font-family="Arial" font-size="14.00" fill="#000000"> </text>
<text text-anchor="start" x="329.7695" y="-422.3" font-family="Arial" font-size="14.00" fill="#666666">[BASE TABLE]</text>
<polygon fill="none" stroke="#000000" points="237,-379.5 237,-409.5 430,-409.5 430,-379.5 237,-379.5"/>
<text text-anchor="start" x="244" y="-390.9" font-family="Arial" font-size="14.00" fill="#000000">user_id </text>
<text text-anchor="start" x="293.7882" y="-390.9" font-family="Arial" font-size="14.00" fill="#666666">[bigint(20)]</text>
<polygon fill="none" stroke="#000000" points="237,-349.5 237,-379.5 430,-379.5 430,-349.5 237,-349.5"/>
<text text-anchor="start" x="244" y="-360.9" font-family="Arial" font-size="14.00" fill="#000000">task_id </text>
<text text-anchor="start" x="292.2356" y="-360.9" font-family="Arial" font-size="14.00" fill="#666666">[bigint(20)]</text>
</g>
<!-- tasks -->
<g id="node2" class="node">
<title>tasks</title>
<polygon fill="#efefef" stroke="transparent" points="114,-192.5 114,-227.5 286,-227.5 286,-192.5 114,-192.5"/>
<polygon fill="none" stroke="#000000" points="114,-192.5 114,-227.5 286,-227.5 286,-192.5 114,-192.5"/>
<text text-anchor="start" x="130.3689" y="-205.3" font-family="Arial Bold" font-size="18.00" fill="#000000">tasks</text>
<text text-anchor="start" x="172.3773" y="-205.3" font-family="Arial" font-size="14.00" fill="#000000"> </text>
<text text-anchor="start" x="176.2679" y="-205.3" font-family="Arial" font-size="14.00" fill="#666666">[BASE TABLE]</text>
<polygon fill="none" stroke="#000000" points="114,-162.5 114,-192.5 286,-192.5 286,-162.5 114,-162.5"/>
<text text-anchor="start" x="121" y="-173.9" font-family="Arial" font-size="14.00" fill="#000000">id </text>
<text text-anchor="start" x="135.7798" y="-173.9" font-family="Arial" font-size="14.00" fill="#666666">[bigint(20)]</text>
<polygon fill="none" stroke="#000000" points="114,-132.5 114,-162.5 286,-162.5 286,-132.5 114,-132.5"/>
<text text-anchor="start" x="121" y="-143.9" font-family="Arial" font-size="14.00" fill="#000000">title </text>
<text text-anchor="start" x="146.6676" y="-143.9" font-family="Arial" font-size="14.00" fill="#666666">[varchar(50)]</text>
<polygon fill="none" stroke="#000000" points="114,-102.5 114,-132.5 286,-132.5 286,-102.5 114,-102.5"/>
<text text-anchor="start" x="120.6564" y="-113.9" font-family="Arial" font-size="14.00" fill="#000000">description </text>
<text text-anchor="start" x="192.2244" y="-113.9" font-family="Arial" font-size="14.00" fill="#666666">[varchar(256)]</text>
<polygon fill="none" stroke="#000000" points="114,-72.5 114,-102.5 286,-102.5 286,-72.5 114,-72.5"/>
<text text-anchor="start" x="121" y="-83.9" font-family="Arial" font-size="14.00" fill="#000000">is_done </text>
<text text-anchor="start" x="173.9102" y="-83.9" font-family="Arial" font-size="14.00" fill="#666666">[tinyint(1)]</text>
<polygon fill="none" stroke="#000000" points="114,-42.5 114,-72.5 286,-72.5 286,-42.5 114,-42.5"/>
<text text-anchor="start" x="121" y="-53.9" font-family="Arial" font-size="14.00" fill="#000000">created_at </text>
<text text-anchor="start" x="191.028" y="-53.9" font-family="Arial" font-size="14.00" fill="#666666">[datetime]</text>
</g>
<!-- ownership&#45;&gt;tasks -->
<g id="edge2" class="edge">
<title>ownership:task_id&#45;&gt;tasks:id</title>
<path fill="none" stroke="#000000" d="M227.1162,-361.6615C216.1888,-352.9237 227.4423,-325.882 237,-307 249.2044,-282.8893 273.7956,-295.1107 286,-271 304.7674,-233.9237 327.5556,-177.5 286,-177.5"/>
<polygon fill="#000000" stroke="#000000" points="227.3885,-361.7396 235.7578,-368.8252 232.1943,-363.1198 237,-364.5 237,-364.5 237,-364.5 232.1943,-363.1198 238.2422,-360.1748 227.3885,-361.7396 227.3885,-361.7396"/>
<text text-anchor="start" x="7.054" y="-374.5" font-family="Arial" font-size="10.00" fill="#000000">FOREIGN KEY (task_id) REFERENCES tasks (id)</text>
</g>
<!-- users -->
<g id="node3" class="node">
<title>users</title>
<polygon fill="#efefef" stroke="transparent" points="391,-192.5 391,-227.5 546,-227.5 546,-192.5 391,-192.5"/>
<polygon fill="none" stroke="#000000" points="391,-192.5 391,-227.5 546,-227.5 546,-192.5 391,-192.5"/>
<text text-anchor="start" x="397.8708" y="-205.3" font-family="Arial Bold" font-size="18.00" fill="#000000">users</text>
<text text-anchor="start" x="441.8754" y="-205.3" font-family="Arial" font-size="14.00" fill="#000000"> </text>
<text text-anchor="start" x="445.766" y="-205.3" font-family="Arial" font-size="14.00" fill="#666666">[BASE TABLE]</text>
<polygon fill="none" stroke="#000000" points="391,-162.5 391,-192.5 546,-192.5 546,-162.5 391,-162.5"/>
<text text-anchor="start" x="398" y="-173.9" font-family="Arial" font-size="14.00" fill="#000000">id </text>
<text text-anchor="start" x="412.7798" y="-173.9" font-family="Arial" font-size="14.00" fill="#666666">[bigint(20)]</text>
<polygon fill="none" stroke="#000000" points="391,-132.5 391,-162.5 546,-162.5 546,-132.5 391,-132.5"/>
<text text-anchor="start" x="398" y="-143.9" font-family="Arial" font-size="14.00" fill="#000000">name </text>
<text text-anchor="start" x="436.899" y="-143.9" font-family="Arial" font-size="14.00" fill="#666666">[varchar(50)]</text>
<polygon fill="none" stroke="#000000" points="391,-102.5 391,-132.5 546,-132.5 546,-102.5 391,-102.5"/>
<text text-anchor="start" x="398" y="-113.9" font-family="Arial" font-size="14.00" fill="#000000">password </text>
<text text-anchor="start" x="461.7882" y="-113.9" font-family="Arial" font-size="14.00" fill="#666666">[binary(32)]</text>
<polygon fill="none" stroke="#000000" points="391,-72.5 391,-102.5 546,-102.5 546,-72.5 391,-72.5"/>
<text text-anchor="start" x="398" y="-83.9" font-family="Arial" font-size="14.00" fill="#000000">updated_at </text>
<text text-anchor="start" x="471.9326" y="-83.9" font-family="Arial" font-size="14.00" fill="#666666">[datetime]</text>
<polygon fill="none" stroke="#000000" points="391,-42.5 391,-72.5 546,-72.5 546,-42.5 391,-42.5"/>
<text text-anchor="start" x="398" y="-53.9" font-family="Arial" font-size="14.00" fill="#000000">created_at </text>
<text text-anchor="start" x="468.028" y="-53.9" font-family="Arial" font-size="14.00" fill="#666666">[datetime]</text>
</g>
<!-- ownership&#45;&gt;users -->
<g id="edge1" class="edge">
<title>ownership:user_id&#45;&gt;users:id</title>
<path fill="none" stroke="#000000" d="M439.998,-392.9661C464.2372,-384.1303 444.0132,-339.0059 430,-307 420.539,-285.3913 400.461,-292.6087 391,-271 374.3332,-232.9332 349.4444,-177.5 391,-177.5"/>
<polygon fill="#000000" stroke="#000000" points="439.8843,-392.9834 429.3175,-390.052 434.9422,-393.7417 430,-394.5 430,-394.5 430,-394.5 434.9422,-393.7417 430.6825,-398.948 439.8843,-392.9834 439.8843,-392.9834"/>
<text text-anchor="start" x="436.945" y="-404.5" font-family="Arial" font-size="10.00" fill="#000000">FOREIGN KEY (user_id) REFERENCES users (id)</text>
</g>
</g>
</svg>
