<?xml version="1.0" encoding="UTF-8" standalone="no"?>
<!DOCTYPE svg PUBLIC "-//W3C//DTD SVG 1.1//EN"
 "http://www.w3.org/Graphics/SVG/1.1/DTD/svg11.dtd">
<!-- Generated by graphviz version 2.40.1 (20161225.0304)
 -->
<!-- Title: tasks Pages: 1 -->
<svg width="678pt" height="502pt"
 viewBox="0.00 0.00 678.00 502.00" xmlns="http://www.w3.org/2000/svg" xmlns:xlink="http://www.w3.org/1999/xlink">
<g id="graph0" class="graph" transform="scale(1 1) rotate(0) translate(4 498)">
<title>tasks</title>
<polygon fill="#ffffff" stroke="transparent" points="-4,4 -4,-498 674,-498 674,4 -4,4"/>
<!-- tasks -->
<g id="node1" class="node">
<title>tasks</title>
<polygon fill="#efefef" stroke="transparent" points="112,-195.5 112,-230.5 284,-230.5 284,-195.5 112,-195.5"/>
<polygon fill="none" stroke="#000000" points="112,-195.5 112,-230.5 284,-230.5 284,-195.5 112,-195.5"/>
<text text-anchor="start" x="128.3689" y="-208.3" font-family="Arial Bold" font-size="18.00" fill="#000000">tasks</text>
<text text-anchor="start" x="170.3773" y="-208.3" font-family="Arial" font-size="14.00" fill="#000000"> </text>
<text text-anchor="start" x="174.2679" y="-208.3" font-family="Arial" font-size="14.00" fill="#666666">[BASE TABLE]</text>
<polygon fill="none" stroke="#000000" points="112,-165.5 112,-195.5 284,-195.5 284,-165.5 112,-165.5"/>
<text text-anchor="start" x="119" y="-176.9" font-family="Arial" font-size="14.00" fill="#000000">id </text>
<text text-anchor="start" x="133.7798" y="-176.9" font-family="Arial" font-size="14.00" fill="#666666">[bigint(20)]</text>
<polygon fill="none" stroke="#000000" points="112,-135.5 112,-165.5 284,-165.5 284,-135.5 112,-135.5"/>
<text text-anchor="start" x="119" y="-146.9" font-family="Arial" font-size="14.00" fill="#000000">title </text>
<text text-anchor="start" x="144.6676" y="-146.9" font-family="Arial" font-size="14.00" fill="#666666">[varchar(50)]</text>
<polygon fill="none" stroke="#000000" points="112,-105.5 112,-135.5 284,-135.5 284,-105.5 112,-105.5"/>
<text text-anchor="start" x="118.6564" y="-116.9" font-family="Arial" font-size="14.00" fill="#000000">description </text>
<text text-anchor="start" x="190.2244" y="-116.9" font-family="Arial" font-size="14.00" fill="#666666">[varchar(256)]</text>
<polygon fill="none" stroke="#000000" points="112,-75.5 112,-105.5 284,-105.5 284,-75.5 112,-75.5"/>
<text text-anchor="start" x="119" y="-86.9" font-family="Arial" font-size="14.00" fill="#000000">is_done </text>
<text text-anchor="start" x="171.9102" y="-86.9" font-family="Arial" font-size="14.00" fill="#666666">[tinyint(1)]</text>
<polygon fill="none" stroke="#000000" points="112,-45.5 112,-75.5 284,-75.5 284,-45.5 112,-45.5"/>
<text text-anchor="start" x="119" y="-56.9" font-family="Arial" font-size="14.00" fill="#000000">created_at </text>
<text text-anchor="start" x="189.028" y="-56.9" font-family="Arial" font-size="14.00" fill="#666666">[datetime]</text>
<polygon fill="none" stroke="#000000" stroke-width="3" points="110.5,-44.5 110.5,-232.5 285.5,-232.5 285.5,-44.5 110.5,-44.5"/>
</g>
<!-- ownership -->
<g id="node2" class="node">
<title>ownership</title>
<polygon fill="#efefef" stroke="transparent" points="237,-415.5 237,-450.5 430,-450.5 430,-415.5 237,-415.5"/>
<polygon fill="none" stroke="#000000" points="237,-415.5 237,-450.5 430,-450.5 430,-415.5 237,-415.5"/>
<text text-anchor="start" x="243.8673" y="-428.3" font-family="Arial Bold" font-size="18.00" fill="#000000">ownership</text>
<text text-anchor="start" x="325.8789" y="-428.3" font-family="Arial" font-size="14.00" fill="#000000"> </text>
<text text-anchor="start" x="329.7695" y="-428.3" font-family="Arial" font-size="14.00" fill="#666666">[BASE TABLE]</text>
<polygon fill="none" stroke="#000000" points="237,-385.5 237,-415.5 430,-415.5 430,-385.5 237,-385.5"/>
<text text-anchor="start" x="244" y="-396.9" font-family="Arial" font-size="14.00" fill="#000000">user_id </text>
<text text-anchor="start" x="293.7882" y="-396.9" font-family="Arial" font-size="14.00" fill="#666666">[bigint(20)]</text>
<polygon fill="none" stroke="#000000" points="237,-355.5 237,-385.5 430,-385.5 430,-355.5 237,-355.5"/>
<text text-anchor="start" x="244" y="-366.9" font-family="Arial" font-size="14.00" fill="#000000">task_id </text>
<text text-anchor="start" x="292.2356" y="-366.9" font-family="Arial" font-size="14.00" fill="#666666">[bigint(20)]</text>
</g>
<!-- ownership&#45;&gt;tasks -->
<g id="edge1" class="edge">
<title>ownership:task_id&#45;&gt;tasks:id</title>
<path fill="none" stroke="#000000" d="M227.133,-367.6698C216.2538,-358.9562 227.6316,-331.9767 237,-313 248.6479,-289.4061 272.3521,-300.5939 284,-277 302.9859,-238.5423 326.8889,-180.5 284,-180.5"/>
<polygon fill="#000000" stroke="#000000" points="227.3876,-367.7428 235.7593,-374.8256 232.1938,-369.1214 237,-370.5 237,-370.5 237,-370.5 232.1938,-369.1214 238.2407,-366.1744 227.3876,-367.7428 227.3876,-367.7428"/>
<text text-anchor="start" x="7.054" y="-380.5" font-family="Arial" font-size="10.00" fill="#000000">FOREIGN KEY (task_id) REFERENCES tasks (id)</text>
</g>
<!-- users -->
<g id="node3" class="node">
<title>users</title>
<polygon fill="#efefef" stroke="transparent" points="392,-195.5 392,-230.5 547,-230.5 547,-195.5 392,-195.5"/>
<polygon fill="none" stroke="#000000" points="392,-195.5 392,-230.5 547,-230.5 547,-195.5 392,-195.5"/>
<text text-anchor="start" x="398.8708" y="-208.3" font-family="Arial Bold" font-size="18.00" fill="#000000">users</text>
<text text-anchor="start" x="442.8754" y="-208.3" font-family="Arial" font-size="14.00" fill="#000000"> </text>
<text text-anchor="start" x="446.766" y="-208.3" font-family="Arial" font-size="14.00" fill="#666666">[BASE TABLE]</text>
<polygon fill="none" stroke="#000000" points="392,-165.5 392,-195.5 547,-195.5 547,-165.5 392,-165.5"/>
<text text-anchor="start" x="399" y="-176.9" font-family="Arial" font-size="14.00" fill="#000000">id </text>
<text text-anchor="start" x="413.7798" y="-176.9" font-family="Arial" font-size="14.00" fill="#666666">[bigint(20)]</text>
<polygon fill="none" stroke="#000000" points="392,-135.5 392,-165.5 547,-165.5 547,-135.5 392,-135.5"/>
<text text-anchor="start" x="399" y="-146.9" font-family="Arial" font-size="14.00" fill="#000000">name </text>
<text text-anchor="start" x="437.899" y="-146.9" font-family="Arial" font-size="14.00" fill="#666666">[varchar(50)]</text>
<polygon fill="none" stroke="#000000" points="392,-105.5 392,-135.5 547,-135.5 547,-105.5 392,-105.5"/>
<text text-anchor="start" x="399" y="-116.9" font-family="Arial" font-size="14.00" fill="#000000">password </text>
<text text-anchor="start" x="462.7882" y="-116.9" font-family="Arial" font-size="14.00" fill="#666666">[binary(32)]</text>
<polygon fill="none" stroke="#000000" points="392,-75.5 392,-105.5 547,-105.5 547,-75.5 392,-75.5"/>
<text text-anchor="start" x="399" y="-86.9" font-family="Arial" font-size="14.00" fill="#000000">updated_at </text>
<text text-anchor="start" x="472.9326" y="-86.9" font-family="Arial" font-size="14.00" fill="#666666">[datetime]</text>
<polygon fill="none" stroke="#000000" points="392,-45.5 392,-75.5 547,-75.5 547,-45.5 392,-45.5"/>
<text text-anchor="start" x="399" y="-56.9" font-family="Arial" font-size="14.00" fill="#000000">created_at </text>
<text text-anchor="start" x="469.028" y="-56.9" font-family="Arial" font-size="14.00" fill="#666666">[datetime]</text>
</g>
<!-- ownership&#45;&gt;users -->
<g id="edge2" class="edge">
<title>ownership:user_id&#45;&gt;users:id</title>
<path fill="none" stroke="#000000" d="M439.9716,-398.9772C464.064,-390.2034 443.1608,-345.3658 430,-313 420.8841,-290.5817 401.1159,-296.4183 392,-274 376.347,-235.5052 350.4444,-180.5 392,-180.5"/>
<polygon fill="#000000" stroke="#000000" points="439.8854,-398.9903 429.3206,-396.0516 434.9427,-399.7451 430,-400.5 430,-400.5 430,-400.5 434.9427,-399.7451 430.6794,-404.9484 439.8854,-398.9903 439.8854,-398.9903"/>
<text text-anchor="start" x="436.945" y="-410.5" font-family="Arial" font-size="10.00" fill="#000000">FOREIGN KEY (user_id) REFERENCES users (id)</text>
</g>
</g>
</svg>
