<?xml version="1.0" encoding="UTF-8" standalone="no"?>
<!DOCTYPE svg PUBLIC "-//W3C//DTD SVG 1.1//EN"
 "http://www.w3.org/Graphics/SVG/1.1/DTD/svg11.dtd">
<!-- Generated by graphviz version 2.40.1 (20161225.0304)
 -->
<!-- Title: users Pages: 1 -->
<svg width="678pt" height="502pt"
 viewBox="0.00 0.00 678.00 502.00" xmlns="http://www.w3.org/2000/svg" xmlns:xlink="http://www.w3.org/1999/xlink">
<g id="graph0" class="graph" transform="scale(1 1) rotate(0) translate(4 498)">
<title>users</title>
<polygon fill="#ffffff" stroke="transparent" points="-4,4 -4,-498 674,-498 674,4 -4,4"/>
<!-- users -->
<g id="node1" class="node">
<title>users</title>
<polygon fill="#efefef" stroke="transparent" points="124,-195.5 124,-230.5 279,-230.5 279,-195.5 124,-195.5"/>
<polygon fill="none" stroke="#000000" points="124,-195.5 124,-230.5 279,-230.5 279,-195.5 124,-195.5"/>
<text text-anchor="start" x="130.8708" y="-208.3" font-family="Arial Bold" font-size="18.00" fill="#000000">users</text>
<text text-anchor="start" x="174.8754" y="-208.3" font-family="Arial" font-size="14.00" fill="#000000"> </text>
<text text-anchor="start" x="178.766" y="-208.3" font-family="Arial" font-size="14.00" fill="#666666">[BASE TABLE]</text>
<polygon fill="none" stroke="#000000" points="124,-165.5 124,-195.5 279,-195.5 279,-165.5 124,-165.5"/>
<text text-anchor="start" x="131" y="-176.9" font-family="Arial" font-size="14.00" fill="#000000">id </text>
<text text-anchor="start" x="145.7798" y="-176.9" font-family="Arial" font-size="14.00" fill="#666666">[bigint(20)]</text>
<polygon fill="none" stroke="#000000" points="124,-135.5 124,-165.5 279,-165.5 279,-135.5 124,-135.5"/>
<text text-anchor="start" x="131" y="-146.9" font-family="Arial" font-size="14.00" fill="#000000">name </text>
<text text-anchor="start" x="169.899" y="-146.9" font-family="Arial" font-size="14.00" fill="#666666">[varchar(50)]</text>
<polygon fill="none" stroke="#000000" points="124,-105.5 124,-135.5 279,-135.5 279,-105.5 124,-105.5"/>
<text text-anchor="start" x="131" y="-116.9" font-family="Arial" font-size="14.00" fill="#000000">password </text>
<text text-anchor="start" x="194.7882" y="-116.9" font-family="Arial" font-size="14.00" fill="#666666">[binary(32)]</text>
<polygon fill="none" stroke="#000000" points="124,-75.5 124,-105.5 279,-105.5 279,-75.5 124,-75.5"/>
<text text-anchor="start" x="131" y="-86.9" font-family="Arial" font-size="14.00" fill="#000000">updated_at </text>
<text text-anchor="start" x="204.9326" y="-86.9" font-family="Arial" font-size="14.00" fill="#666666">[datetime]</text>
<polygon fill="none" stroke="#000000" points="124,-45.5 124,-75.5 279,-75.5 279,-45.5 124,-45.5"/>
<text text-anchor="start" x="131" y="-56.9" font-family="Arial" font-size="14.00" fill="#000000">created_at </text>
<text text-anchor="start" x="201.028" y="-56.9" font-family="Arial" font-size="14.00" fill="#666666">[datetime]</text>
<polygon fill="none" stroke="#000000" stroke-width="3" points="122,-44.5 122,-232.5 280,-232.5 280,-44.5 122,-44.5"/>
</g>
<!-- ownership -->
<g id="node2" class="node">
<title>ownership</title>
<polygon fill="#efefef" stroke="transparent" points="240,-415.5 240,-450.5 433,-450.5 433,-415.5 240,-415.5"/>
<polygon fill="none" stroke="#000000" points="240,-415.5 240,-450.5 433,-450.5 433,-415.5 240,-415.5"/>
<text text-anchor="start" x="246.8673" y="-428.3" font-family="Arial Bold" font-size="18.00" fill="#000000">ownership</text>
<text text-anchor="start" x="328.8789" y="-428.3" font-family="Arial" font-size="14.00" fill="#000000"> </text>
<text text-anchor="start" x="332.7695" y="-428.3" font-family="Arial" font-size="14.00" fill="#666666">[BASE TABLE]</text>
<polygon fill="none" stroke="#000000" points="240,-385.5 240,-415.5 433,-415.5 433,-385.5 240,-385.5"/>
<text text-anchor="start" x="247" y="-396.9" font-family="Arial" font-size="14.00" fill="#000000">user_id </text>
<text text-anchor="start" x="296.7882" y="-396.9" font-family="Arial" font-size="14.00" fill="#666666">[bigint(20)]</text>
<polygon fill="none" stroke="#000000" points="240,-355.5 240,-385.5 433,-385.5 433,-355.5 240,-355.5"/>
<text text-anchor="start" x="247" y="-366.9" font-family="Arial" font-size="14.00" fill="#000000">task_id </text>
<text text-anchor="start" x="295.2356" y="-366.9" font-family="Arial" font-size="14.00" fill="#666666">[bigint(20)]</text>
</g>
<!-- ownership&#45;&gt;users -->
<g id="edge1" class="edge">
<title>ownership:user_id&#45;&gt;users:id</title>
<path fill="none" stroke="#000000" d="M230.002,-398.9661C205.7628,-390.1303 225.9868,-345.0059 240,-313 249.461,-291.3913 269.539,-298.6087 279,-277 296.2016,-237.7118 321.8889,-180.5 279,-180.5"/>
<polygon fill="#000000" stroke="#000000" points="230.1157,-398.9834 239.3175,-404.948 235.0578,-399.7417 240,-400.5 240,-400.5 240,-400.5 235.0578,-399.7417 240.6825,-396.052 230.1157,-398.9834 230.1157,-398.9834"/>
<text text-anchor="start" x="6.945" y="-410.5" font-family="Arial" font-size="10.00" fill="#000000">FOREIGN KEY (user_id) REFERENCES users (id)</text>
</g>
<!-- tasks -->
<g id="node3" class="node">
<title>tasks</title>
<polygon fill="#efefef" stroke="transparent" points="386,-195.5 386,-230.5 558,-230.5 558,-195.5 386,-195.5"/>
<polygon fill="none" stroke="#000000" points="386,-195.5 386,-230.5 558,-230.5 558,-195.5 386,-195.5"/>
<text text-anchor="start" x="402.3689" y="-208.3" font-family="Arial Bold" font-size="18.00" fill="#000000">tasks</text>
<text text-anchor="start" x="444.3773" y="-208.3" font-family="Arial" font-size="14.00" fill="#000000"> </text>
<text text-anchor="start" x="448.2679" y="-208.3" font-family="Arial" font-size="14.00" fill="#666666">[BASE TABLE]</text>
<polygon fill="none" stroke="#000000" points="386,-165.5 386,-195.5 558,-195.5 558,-165.5 386,-165.5"/>
<text text-anchor="start" x="393" y="-176.9" font-family="Arial" font-size="14.00" fill="#000000">id </text>
<text text-anchor="start" x="407.7798" y="-176.9" font-family="Arial" font-size="14.00" fill="#666666">[bigint(20)]</text>
<polygon fill="none" stroke="#000000" points="386,-135.5 386,-165.5 558,-165.5 558,-135.5 386,-135.5"/>
<text text-anchor="start" x="393" y="-146.9" font-family="Arial" font-size="14.00" fill="#000000">title </text>
<text text-anchor="start" x="418.6676" y="-146.9" font-family="Arial" font-size="14.00" fill="#666666">[varchar(50)]</text>
<polygon fill="none" stroke="#000000" points="386,-105.5 386,-135.5 558,-135.5 558,-105.5 386,-105.5"/>
<text text-anchor="start" x="392.6564" y="-116.9" font-family="Arial" font-size="14.00" fill="#000000">description </text>
<text text-anchor="start" x="464.2244" y="-116.9" font-family="Arial" font-size="14.00" fill="#666666">[varchar(256)]</text>
<polygon fill="none" stroke="#000000" points="386,-75.5 386,-105.5 558,-105.5 558,-75.5 386,-75.5"/>
<text text-anchor="start" x="393" y="-86.9" font-family="Arial" font-size="14.00" fill="#000000">is_done </text>
<text text-anchor="start" x="445.9102" y="-86.9" font-family="Arial" font-size="14.00" fill="#666666">[tinyint(1)]</text>
<polygon fill="none" stroke="#000000" points="386,-45.5 386,-75.5 558,-75.5 558,-45.5 386,-45.5"/>
<text text-anchor="start" x="393" y="-56.9" font-family="Arial" font-size="14.00" fill="#000000">created_at </text>
<text text-anchor="start" x="463.028" y="-56.9" font-family="Arial" font-size="14.00" fill="#666666">[datetime]</text>
</g>
<!-- ownership&#45;&gt;tasks -->
<g id="edge2" class="edge">
<title>ownership:task_id&#45;&gt;tasks:id</title>
<path fill="none" stroke="#000000" d="M442.834,-367.6857C453.6183,-359.0178 441.9966,-332.1557 433,-313 421.461,-288.4309 397.539,-298.5691 386,-274 368.3345,-236.3862 344.4444,-180.5 386,-180.5"/>
<polygon fill="#000000" stroke="#000000" points="442.6141,-367.7486 431.7619,-366.1737 437.807,-369.1243 433,-370.5 433,-370.5 433,-370.5 437.807,-369.1243 434.2381,-374.8263 442.6141,-367.7486 442.6141,-367.7486"/>
<text text-anchor="start" x="440.054" y="-380.5" font-family="Arial" font-size="10.00" fill="#000000">FOREIGN KEY (task_id) REFERENCES tasks (id)</text>
</g>
</g>
</svg>
